# xmcd
#
# Track frame offsets:
#	150
#	17478
#	33865
#	47533
#	66618
#	85980
#	103789
#	121864
#	142227
#	162753
#	183562
#	203470
#
# Disc length: 2916 seconds
#
# Revision: 1
# Processed by: cddbd v1.5.2PL0 Copyright (c) Steve Scherf et al.
# Submitted via: EasyCDDAExtractor 11.9.9.666
#
DISCID=9f0b620c
DTITLE=Chris Knight - Heart Of Stone
DYEAR=2008
DGENRE=Country
TTITLE0=Homesick Gypsy
TTITLE1=Hell Ain't Half Full
TTITLE2=Something To Keep Me Going
TTITLE3=Heart Of Stone
TTITLE4=Danville
TTITLE5=Another Dollar
TTITLE6=Almost There
TTITLE7=Crooked Road
TTITLE8=Maria
TTITLE9=Miles To Memphis
TTITLE10=My Old Cars
TTITLE11=Go On Home
EXTD=
EXTT0=
EXTT1=
EXTT2=
EXTT3=
EXTT4=
EXTT5=
EXTT6=
EXTT7=
EXTT8=
EXTT9=
EXTT10=
EXTT11=
PLAYORDER=
